<?xml version="1.0" encoding="UTF-8"?>
<svg width="30px" height="32px" viewBox="0 0 30 32" version="1.1" xmlns="http://www.w3.org/2000/svg" xmlns:xlink="http://www.w3.org/1999/xlink">
    <!-- Generator: Sketch 43.2 (39069) - http://www.bohemiancoding.com/sketch -->
    <title>Group Copy</title>
    <desc>Created with Sketch.</desc>
    <defs></defs>
    <g id="Homepage" stroke="none" stroke-width="1" fill="none" fill-rule="evenodd">
        <g id="Web-Home-Desktop-v4" transform="translate(-497.000000, -2381.000000)" fill-rule="nonzero" fill="#000000">
            <g id="SecFeatures" transform="translate(138.000000, 2213.000000)">
                <g id="Group-Copy" transform="translate(359.000000, 168.000000)">
                    <g id="Group-9">
                        <path d="M27.8045209,23.4228558 C27.8045209,21.868489 27.1867665,20.3772239 26.0876457,19.2781031 L23.3904069,16.5808643 C22.0474323,15.2371734 21.292893,13.4158979 21.292893,11.5169953 L21.292893,8.35364651 C21.292893,4.75681765 18.3769312,1.84085581 14.7801023,1.84085581 C11.1832735,1.84085581 8.26731163,4.75681765 8.26731163,8.35364651 L8.26731163,11.5169953 C8.26731163,13.4158979 7.51277238,15.2371734 6.16967522,16.5809868 L3.47255894,19.2781031 C2.37343813,20.3772239 1.75568372,21.868489 1.75568372,23.4228558 L1.75568372,25.2850419 L27.8045209,25.2850419 L27.8045209,23.4228558 Z M29.1045209,23.4228558 L29.1045209,26.5850419 L0.455683721,26.5850419 L0.455683721,23.4228558 C0.455683721,21.5236936 1.2104119,19.7017725 2.55332013,18.3588643 L5.25031389,15.6618706 C6.34970721,14.5618909 6.96731163,13.071143 6.96731163,11.5169953 L6.96731163,8.35364651 C6.96731163,4.03884747 10.4653033,0.540855814 14.7801023,0.540855814 C19.0949014,0.540855814 22.592893,4.03884747 22.592893,8.35364651 L22.592893,11.5169953 C22.592893,13.071143 23.2104974,14.5618909 24.3097682,15.661748 L27.0068845,18.3588643 C28.3497927,19.7017725 29.1045209,21.5236936 29.1045209,23.4228558 Z" id="Stroke-497"></path>
                        <path d="M10.2231256,25.9349767 L10.2231256,27.2373023 C10.2231256,29.7542409 12.2631637,31.7942791 14.7801023,31.7942791 C17.2970409,31.7942791 19.3370791,29.7542409 19.3370791,27.2373023 L19.3370791,25.9349767 L18.0370791,25.9349767 L18.0370791,27.2373023 C18.0370791,29.0362707 16.5790707,30.4942791 14.7801023,30.4942791 C12.9811339,30.4942791 11.5231256,29.0362707 11.5231256,27.2373023 L11.5231256,25.9349767 L10.2231256,25.9349767 Z" id="Stroke-498"></path>
                    </g>
                </g>
            </g>
        </g>
    </g>
</svg>