<?xml version="1.0" encoding="UTF-8"?>
<svg width="27px" height="33px" viewBox="0 0 27 33" version="1.1" xmlns="http://www.w3.org/2000/svg" xmlns:xlink="http://www.w3.org/1999/xlink">
    <!-- Generator: Sketch 43.2 (39069) - http://www.bohemiancoding.com/sketch -->
    <title>Group</title>
    <desc>Created with Sketch.</desc>
    <defs></defs>
    <g id="Homepage" stroke="none" stroke-width="1" fill="none" fill-rule="evenodd">
        <g id="Web-Home-Desktop-v4" transform="translate(-772.000000, -2583.000000)" fill-rule="nonzero" fill="#000000">
            <g id="SecFeatures" transform="translate(138.000000, 2213.000000)">
                <g id="Group-12" transform="translate(0.000000, 166.000000)">
                    <g id="Group" transform="translate(634.000000, 204.000000)">
                        <path d="M0.459459459,32.9290541 L0.459459459,4.60202703 L26.0837838,4.60202703 L26.0837838,32.9290541 L0.459459459,32.9290541 Z M24.7837838,31.6290541 L24.7837838,5.90202703 L1.75945946,5.90202703 L1.75945946,31.6290541 L24.7837838,31.6290541 Z" id="Stroke-1491"></path>
                        <path d="M11.2191216,5.25202703 L11.2191216,3.90067568 C11.2191216,2.7670932 12.1382418,1.84797297 13.2718243,1.84797297 C14.4054068,1.84797297 15.324527,2.7670932 15.324527,3.90067568 L15.324527,5.25202703 L16.624527,5.25202703 L16.624527,3.90067568 C16.624527,2.04912302 15.123377,0.547972973 13.2718243,0.547972973 C11.4202717,0.547972973 9.91912162,2.04912302 9.91912162,3.90067568 L9.91912162,5.25202703 L11.2191216,5.25202703 Z" id="Stroke-1492"></path>
                        <path d="M18.7029054,5.25202703 L18.7029054,7.94662162 C18.7029054,8.33831221 18.3851365,8.65608108 17.9934459,8.65608108 L8.5502027,8.65608108 C8.15851211,8.65608108 7.84074324,8.33831221 7.84074324,7.94662162 L7.84074324,5.25202703 L6.54074324,5.25202703 L6.54074324,7.94662162 C6.54074324,9.05628238 7.44054194,9.95608108 8.5502027,9.95608108 L17.9934459,9.95608108 C19.1031067,9.95608108 20.0029054,9.05628238 20.0029054,7.94662162 L20.0029054,5.25202703 L18.7029054,5.25202703 Z" id="Stroke-1493"></path>
                    </g>
                </g>
            </g>
        </g>
    </g>
</svg>