<?xml version="1.0" encoding="UTF-8"?>
<svg width="33px" height="34px" viewBox="0 0 33 34" version="1.1" xmlns="http://www.w3.org/2000/svg" xmlns:xlink="http://www.w3.org/1999/xlink">
    <!-- Generator: Sketch 43.2 (39069) - http://www.bohemiancoding.com/sketch -->
    <title>Group 5</title>
    <desc>Created with Sketch.</desc>
    <defs></defs>
    <g id="ForTeams" stroke="none" stroke-width="1" fill="none" fill-rule="evenodd">
        <g id="Web-Team-Desktop-v4" transform="translate(-525.000000, -918.000000)" fill-rule="nonzero" fill="#000000">
            <g id="Features" transform="translate(144.000000, 608.000000)">
                <g id="Group-5" transform="translate(381.000000, 310.000000)">
                    <polygon id="Stroke-1607" points="26.0276714 32.0030612 7.17052857 32.0030612 7.17052857 33.3030612 26.0276714 33.3030612"></polygon>
                    <path d="M16.6991429,24.8886384 C17.1899877,26.0314251 17.7814006,27.1480079 18.480593,28.1763688 C20.4541281,31.0790121 22.9557286,32.8269184 26.0276714,32.8269184 L26.0276714,31.5269184 C23.4578573,31.5269184 21.3106028,30.0265989 19.5556427,27.4454322 C18.9070819,26.4915396 18.3537333,25.4468217 17.8936227,24.3755906 C17.5914618,23.6720984 17.375533,23.0689897 17.2404022,22.6255471 C17.0553338,21.9878851 16.1428662,21.9878851 15.9553443,22.6337938 C15.822667,23.0689897 15.6067382,23.6720984 15.3045773,24.3755906 C14.8444667,25.4468217 14.2911181,26.4915396 13.6425573,27.4454322 C11.8875972,30.0265989 9.7403427,31.5269184 7.17052857,31.5269184 L7.17052857,32.8269184 C10.2424714,32.8269184 12.7440719,31.0790121 14.717607,28.1763688 C15.4167994,27.1480079 16.0082123,26.0314251 16.4990571,24.8886384 C16.5334321,24.8086062 16.5667771,24.7297466 16.5991006,24.6521296 C16.6314258,24.7297534 16.6647694,24.8086096 16.6991429,24.8886384 Z" id="Stroke-1608"></path>
                    <path d="M7.12846244,10.2100091 C8.29897038,17.1051364 11.9585826,22.0983469 16.5991,22.0983469 C21.2294921,22.0983469 25.0089287,16.9313976 26.0685746,10.2170968 L27.2939486,2.48169183 L16.6375356,1.84618916 L5.90429298,2.48197594 L7.12846244,10.2100091 Z M16.5991,23.3983469 C11.1613307,23.3983469 7.11042692,17.8712545 5.84563584,10.420495 L4.39594449,1.26904467 L5.11168484,1.22664758 L16.6375356,0.548463905 L28.8022555,1.26904467 L28.6900744,1.9772093 L27.3526228,10.4201243 C26.2055505,17.6883913 22.0289243,23.3983469 16.5991,23.3983469 Z" id="Stroke-1609"></path>
                    <path d="M17.2725694,22.0983469 L16.5991,22.0983469 L16.5991,23.3983469 L17.2725694,23.3983469 C25.8142075,23.3983469 32.7388959,16.4736586 32.7388959,7.93202041 L32.7388959,7.28202041 L27.0378755,7.28202041 L27.0378755,8.58202041 L31.4242477,8.58202041 C31.0845251,16.1039932 24.8783874,22.0983469 17.2725694,22.0983469 Z" id="Stroke-1610"></path>
                    <path d="M6.16032449,8.58202041 L6.16032449,7.28202041 L0.459304082,7.28202041 L0.459304082,7.93202041 C0.459304082,16.4736586 7.38399246,23.3983469 15.9256306,23.3983469 L16.5991,23.3983469 L16.5991,22.0983469 L15.9256306,22.0983469 C8.31981258,22.0983469 2.11367488,16.1039932 1.77395234,8.58202041 L6.16032449,8.58202041 Z" id="Stroke-1611"></path>
                </g>
            </g>
        </g>
    </g>
</svg>