<?xml version="1.0" encoding="UTF-8"?>
<svg width="40px" height="30px" viewBox="0 0 40 30" version="1.1" xmlns="http://www.w3.org/2000/svg" xmlns:xlink="http://www.w3.org/1999/xlink">
    <!-- Generator: Sketch 43.2 (39069) - http://www.bohemiancoding.com/sketch -->
    <title>Group 30</title>
    <desc>Created with Sketch.</desc>
    <defs></defs>
    <g id="Results" stroke="none" stroke-width="1" fill="none" fill-rule="evenodd">
        <g id="Web-Results-Desktop" transform="translate(-212.000000, -1881.000000)" fill-rule="nonzero" fill="#000000">
            <g id="OtherResults" transform="translate(124.000000, 1856.000000)">
                <g id="Group-8">
                    <g id="Group-11" transform="translate(68.000000, 0.000000)">
                        <g id="Group-30" transform="translate(20.600000, 25.400000)">
                            <path d="M1.92967995,22.0344 C1.92967995,25.1269722 4.43710777,27.6344 7.52968,27.6344 L31.52968,27.6344 C34.6222522,27.6344 37.12968,25.1269722 37.12968,22.0344 L37.12968,2.03439995 L1.92967995,2.03439995 L1.92967995,22.0344 Z M31.52968,29.2344 L7.52968,29.2344 C3.55345223,29.2344 0.329680048,26.0106278 0.329680048,22.0344 L0.329680048,0.434400048 L38.72968,0.434400048 L38.72968,22.0344 C38.72968,26.0106278 35.5059078,29.2344 31.52968,29.2344 Z" id="Stroke-1393"></path>
                            <polygon id="Stroke-1394" points="5.90181284 5.40252431 4.82730716 6.58803569 19.5290499 19.9131765 34.3117917 6.56994024 33.2397283 5.38221976 19.5312701 17.7557835"></polygon>
                        </g>
                    </g>
                </g>
            </g>
        </g>
    </g>
</svg>