<?xml version="1.0" encoding="UTF-8"?>
<svg width="22px" height="33px" viewBox="0 0 22 33" version="1.1" xmlns="http://www.w3.org/2000/svg" xmlns:xlink="http://www.w3.org/1999/xlink">
    <!-- Generator: Sketch 43.2 (39069) - http://www.bohemiancoding.com/sketch -->
    <title>Group 3</title>
    <desc>Created with Sketch.</desc>
    <defs></defs>
    <g id="ForTeams" stroke="none" stroke-width="1" fill="none" fill-rule="evenodd">
        <g id="Web-Team-Desktop-v4" transform="translate(-149.000000, -919.000000)" fill-rule="nonzero" fill="#000000">
            <g id="Features" transform="translate(144.000000, 608.000000)">
                <g id="Group-3" transform="translate(5.000000, 311.000000)">
                    <path d="M17.4582,25.2566667 C17.4582,23.3318693 16.5369693,21.522676 14.9805596,20.3910151 L10.7748667,17.3323849 L6.56911785,20.3910557 C5.01276399,21.522676 4.09153333,23.3318693 4.09153333,25.2566667 L4.09153333,31.212 L17.4582,31.212 L17.4582,25.2566667 Z M2.79153333,32.512 L2.79153333,25.2566667 C2.79153333,22.9159385 3.91179145,20.7158777 5.80455961,19.3396516 L10.7748667,15.7249485 L11.1571737,16.0029849 L15.7451179,19.3396109 C17.6379419,20.7158777 18.7582,22.9159385 18.7582,25.2566667 L18.7582,32.512 L2.79153333,32.512 Z" id="Stroke-492"></path>
                    <path d="M4.09153333,7.80066667 C4.09153333,9.72523965 5.01259077,11.5339297 6.56917373,12.6663182 L10.7748667,15.7249485 L14.9804826,12.6663743 C16.5371426,11.5339297 17.4582,9.72523965 17.4582,7.80066667 L17.4582,1.84533333 L4.09153333,1.84533333 L4.09153333,7.80066667 Z M18.7582,0.545333333 L18.7582,7.80066667 C18.7582,10.1411333 17.6381617,12.3405641 15.7451737,13.7176818 L10.7748667,17.3323849 L10.3925596,17.0543484 L5.80448258,13.7176257 C3.91157163,12.3405641 2.79153333,10.1411333 2.79153333,7.80066667 L2.79153333,0.545333333 L18.7582,0.545333333 Z" id="Stroke-493"></path>
                    <polygon id="Stroke-494" points="0.1082 32.65 21.4415333 32.65 21.4415333 31.35 0.1082 31.35"></polygon>
                    <polygon id="Stroke-495" points="0.1082 1.65 21.4415333 1.65 21.4415333 0.35 0.1082 0.35"></polygon>
                    <polygon id="Stroke-496" points="17.9919245 27.8348488 18.2244755 26.5558179 10.7748667 25.2013436 3.3252578 26.5558179 3.55780887 27.8348488 10.7748667 26.5226564"></polygon>
                </g>
            </g>
        </g>
    </g>
</svg>