<?xml version="1.0" encoding="UTF-8"?>
<svg width="26px" height="40px" viewBox="0 0 26 40" version="1.1" xmlns="http://www.w3.org/2000/svg" xmlns:xlink="http://www.w3.org/1999/xlink">
    <!-- Generator: Sketch 43.2 (39069) - http://www.bohemiancoding.com/sketch -->
    <title>Group 4</title>
    <desc>Created with Sketch.</desc>
    <defs></defs>
    <g id="Results" stroke="none" stroke-width="1" fill="none" fill-rule="evenodd">
        <g id="Web-Results-Desktop" transform="translate(-498.000000, -887.000000)" fill-rule="nonzero" fill="#000000">
            <g id="Results2" transform="translate(242.000000, 867.000000)">
                <g id="Group-9" transform="translate(230.000000, 0.000000)">
                    <g id="Group-4" transform="translate(26.200000, 20.600000)">
                        <path d="M25.8,12.2592 C25.8,14.6192909 24.1630883,20.7657278 23.335899,22.7065716 C23.2134597,22.9937325 23.1028364,23.2594838 22.9079753,23.7321565 C22.8434566,23.8886977 22.8434566,23.8886977 22.7786699,24.045771 C20.3400654,29.9544058 18.2432153,32.2 13,32.2 C7.62463091,32.2 5.65571408,30.284235 3.6196163,25.0622077 C3.61775213,25.0574266 3.37504119,24.4330786 3.30473668,24.2537851 C3.18442458,23.9469601 3.08268645,23.692604 2.9825296,23.4497058 C2.8753624,23.1898062 2.77244388,22.9491953 2.66958798,22.7191406 C1.8668217,20.922398 0.200000048,14.6384318 0.200000048,12.2592 C0.200000048,5.58728182 5.94185089,0.200000048 13,0.200000048 C20.0581491,0.200000048 25.8,5.58728182 25.8,12.2592 Z M24.2,12.2592 C24.2,6.49453863 19.1964858,1.79999995 13,1.79999995 C6.80351415,1.79999995 1.79999995,6.49453863 1.79999995,12.2592 C1.79999995,14.3816381 3.41173381,20.4579217 4.13032943,22.0662746 C4.23986567,22.3112709 4.34886528,22.5660987 4.46171426,22.8397775 C4.56586668,23.0923657 4.67087873,23.354907 4.79431258,23.6696932 C4.86563231,23.8515758 5.1092011,24.4781306 5.11031112,24.4809774 C6.93306642,29.1558403 8.41729362,30.6 13,30.6 C17.4089512,30.6 19.0823288,28.8079183 21.2996824,23.4353651 C21.3641604,23.2790401 21.3641604,23.2790401 21.4287452,23.1223384 C21.625919,22.644056 21.7384466,22.3737299 21.8640538,22.0791391 C22.6141438,20.3191944 24.2,14.3644653 24.2,12.2592 Z" id="Stroke-975"></path>
                        <polygon id="Stroke-976" points="9 35.39984 17 35.39984 17 33.79984 9 33.79984"></polygon>
                        <polygon id="Stroke-977" points="9 38.59984 17 38.59984 17 36.99984 9 36.99984"></polygon>
                    </g>
                </g>
            </g>
        </g>
    </g>
</svg>