<?xml version="1.0" encoding="UTF-8"?>
<svg width="27px" height="21px" viewBox="0 0 27 21" version="1.1" xmlns="http://www.w3.org/2000/svg" xmlns:xlink="http://www.w3.org/1999/xlink">
    <!-- Generator: Sketch 43.2 (39069) - http://www.bohemiancoding.com/sketch -->
    <title>Shape Copy 2</title>
    <desc>Created with Sketch.</desc>
    <defs></defs>
    <g id="Mission" stroke="none" stroke-width="1" fill="none" fill-rule="evenodd">
        <g id="Web-Mission-Desktop-v4" transform="translate(-593.000000, -1139.000000)" fill-rule="nonzero" fill="#000000">
            <g id="ManifestoCTA" transform="translate(173.000000, 1001.000000)">
                <g id="Group-10" transform="translate(407.000000, 124.000000)">
                    <g id="Group-9" transform="translate(0.641686, 0.000000)">
                        <path d="M25.4941449,13.9760749 C25.1907826,14.0087372 24.9631555,14.2630614 24.9697192,14.5620076 L24.9697192,15.6978155 C23.8710919,16.4466095 22.7278054,16.8696808 21.4367464,16.8696808 C20.1643737,16.8696808 18.8049635,16.6968591 17.3609471,16.1936046 C17.2218861,16.1451406 17.0876337,16.0952833 16.9469269,16.0403607 C16.6496675,15.9214792 16.3099979,16.0578065 16.1832895,16.3468485 L12.6503168,24.4237048 C12.6184783,24.497834 12.602809,24.577666 12.6043145,24.6580778 C12.6043145,26.8816075 14.4566813,28.6965059 16.7261161,28.6965059 C18.9955509,28.6965059 20.8479176,26.8816075 20.8479176,24.6580778 C20.8481629,24.5806959 20.8325186,24.5040562 20.8019154,24.4327191 L17.8025687,17.4916708 C19.0771558,17.8404583 20.3075265,18.0235174 21.4367464,18.0235174 C22.7212444,18.0235174 23.8932053,17.6573052 24.9697192,17.0499677 L24.9697192,30.3161604 L19.0814313,30.3161604 C18.7227724,30.3441818 18.4912882,30.5944459 18.4926025,30.8930787 L18.4926025,34.3545885 C18.492635,34.6731985 18.7562436,34.931475 19.0814313,34.9315068 L32.0356648,34.9315068 C32.3608525,34.931475 32.624461,34.6731985 32.6244935,34.3545885 L32.6244935,30.8930787 C32.624461,30.5744688 32.3608525,30.3161923 32.0356648,30.3161604 L26.1473768,30.3161604 L26.1473768,17.0499677 C27.2238907,17.6573052 28.3958516,18.0235174 29.6803496,18.0235174 C30.8095695,18.0235174 32.0399402,17.8404583 33.3145273,17.4916708 L30.3151806,24.4327191 C30.2845775,24.5040562 30.2689331,24.5806959 30.2691784,24.6580778 C30.2691784,26.8816075 32.1215451,28.6965059 34.3909799,28.6965059 C36.6604147,28.6965059 38.5127815,26.8816075 38.5127815,24.6580778 C38.514287,24.577666 38.4986177,24.497834 38.4667793,24.4237048 L34.9338065,16.3468485 C34.8070981,16.0578065 34.4674285,15.9214792 34.1701691,16.0403607 C34.0294623,16.0952833 33.8952099,16.1451406 33.7561489,16.1936046 C32.3121325,16.6968591 30.9527223,16.8696808 29.6803496,16.8696808 C28.3892906,16.8696808 27.2460041,16.4466095 26.1473768,15.6978155 L26.1473768,14.5620076 C26.1510298,14.3958573 26.0813835,14.2362324 25.9562745,14.1240127 C25.8311655,14.011793 25.6627448,13.9578779 25.4941449,13.9760749 Z M16.744517,18.0054887 L19.6518592,24.739207 C19.6052793,26.2984152 18.3293464,27.5426693 16.7261161,27.5426693 C15.2971587,27.5426693 14.1258046,26.5539035 13.8555757,25.2349961 L17.9037737,25.2349961 C18.116124,25.2379349 18.31364,25.1286221 18.4206904,24.948915 C18.5277409,24.7692079 18.5277409,24.5469478 18.4206904,24.3672406 C18.31364,24.1875335 18.116124,24.0782208 17.9037737,24.0811595 L14.085587,24.0811595 L16.744517,18.0054887 Z M34.372579,18.0054887 L37.316723,24.739207 C37.2701431,26.2984152 35.9942103,27.5426693 34.3909799,27.5426693 C32.9620226,27.5426693 31.7906684,26.5539035 31.5204396,25.2349961 L35.5686375,25.2349961 C35.7809903,25.2379386 35.9785103,25.1286266 36.0855631,24.948918 C36.1926159,24.7692094 36.1926159,24.5469463 36.0855631,24.3672376 C35.9785103,24.187529 35.7809903,24.0782171 35.5686375,24.0811595 L31.7504508,24.0811595 L34.372579,18.0054887 Z M19.6702601,31.469997 L31.446836,31.469997 L31.446836,33.7776702 L19.6702601,33.7776702 L19.6702601,31.469997 Z" id="Shape-Copy-2"></path>
                    </g>
                </g>
            </g>
        </g>
    </g>
</svg>