<?xml version="1.0" encoding="UTF-8"?>
<svg width="34px" height="34px" viewBox="0 0 34 34" version="1.1" xmlns="http://www.w3.org/2000/svg" xmlns:xlink="http://www.w3.org/1999/xlink">
    <!-- Generator: Sketch 43.2 (39069) - http://www.bohemiancoding.com/sketch -->
    <title>Group 13</title>
    <desc>Created with Sketch.</desc>
    <defs></defs>
    <g id="Homepage" stroke="none" stroke-width="1" fill="none" fill-rule="evenodd">
        <g id="Web-Home-Desktop-v4" transform="translate(-119.000000, -1279.000000)" fill-rule="nonzero" fill="#000000">
            <g id="ValueProp" transform="translate(119.000000, 909.000000)">
                <g id="Group-13" transform="translate(0.000000, 370.000000)">
                    <path d="M17,0 C7.62632143,0 0,7.62632143 0,17 C0,26.3736786 7.62632143,34 17,34 C26.3736786,34 34,26.3736786 34,17 C34,7.62632143 26.3736786,0 17,0 Z M17,32.7857143 C8.296,32.7857143 1.21428571,25.704 1.21428571,17 C1.21428571,8.296 8.296,1.21428571 17,1.21428571 C25.704,1.21428571 32.7857143,8.296 32.7857143,17 C32.7857143,25.704 25.704,32.7857143 17,32.7857143 Z" id="Shape"></path>
                    <path d="M9.71428571,11.5357143 C10.7185,11.5357143 11.5357143,12.3529286 11.5357143,13.3571429 C11.5357143,13.6922857 11.8077143,13.9642857 12.1428571,13.9642857 C12.478,13.9642857 12.75,13.6922857 12.75,13.3571429 C12.75,11.68325 11.3881786,10.3214286 9.71428571,10.3214286 C8.04039286,10.3214286 6.67857143,11.68325 6.67857143,13.3571429 C6.67857143,13.6922857 6.95057143,13.9642857 7.28571429,13.9642857 C7.62085714,13.9642857 7.89285714,13.6922857 7.89285714,13.3571429 C7.89285714,12.3529286 8.71007143,11.5357143 9.71428571,11.5357143 Z" id="Shape"></path>
                    <path d="M24.2857143,10.3214286 C22.6118214,10.3214286 21.25,11.68325 21.25,13.3571429 C21.25,13.6922857 21.522,13.9642857 21.8571429,13.9642857 C22.1922857,13.9642857 22.4642857,13.6922857 22.4642857,13.3571429 C22.4642857,12.3529286 23.2815,11.5357143 24.2857143,11.5357143 C25.2899286,11.5357143 26.1071429,12.3529286 26.1071429,13.3571429 C26.1071429,13.6922857 26.3791429,13.9642857 26.7142857,13.9642857 C27.0494286,13.9642857 27.3214286,13.6922857 27.3214286,13.3571429 C27.3214286,11.68325 25.9596071,10.3214286 24.2857143,10.3214286 Z" id="Shape"></path>
                    <path d="M25.1266071,17.5215714 C25.0968571,17.5446429 22.1206429,19.8214286 17,19.8214286 C11.9285357,19.8214286 8.92682143,17.56225 8.87278571,17.5209643 C8.60807143,17.31575 8.22739286,17.3625 8.02157143,17.6266071 C7.81514286,17.8913214 7.86189286,18.2726071 8.12660714,18.4784286 C8.26017857,18.5828571 11.4665,21.0357143 17,21.0357143 C22.5335,21.0357143 25.7398214,18.5828571 25.8733929,18.4784286 C26.1381071,18.2726071 26.1848571,17.8907143 25.9784286,17.6266071 C25.7726071,17.3618929 25.3907143,17.3145357 25.1266071,17.5215714 Z" id="Shape"></path>
                </g>
            </g>
        </g>
    </g>
</svg>