<?xml version="1.0" encoding="UTF-8"?>
<svg width="30px" height="33px" viewBox="0 0 30 33" version="1.1" xmlns="http://www.w3.org/2000/svg" xmlns:xlink="http://www.w3.org/1999/xlink">
    <!-- Generator: Sketch 43.2 (39069) - http://www.bohemiancoding.com/sketch -->
    <title>Stroke 1602</title>
    <desc>Created with Sketch.</desc>
    <defs></defs>
    <g id="ForTeams" stroke="none" stroke-width="1" fill="none" fill-rule="evenodd">
        <g id="Web-Team-Desktop-v4" transform="translate(-144.000000, -786.000000)" fill-rule="nonzero" fill="#000000">
            <g id="Features" transform="translate(144.000000, 608.000000)">
                <path d="M14.5901237,178.171664 L15.0958226,178.413689 C18.9607846,180.263438 19.8428358,184.229168 17.7713042,187.817239 L16.6547683,189.8186 C16.0308718,191.073431 16.4987349,191.852914 17.8478261,191.828261 L23.576087,191.828261 C24.834484,191.828261 26.1601248,192.134052 27.3534388,193.001745 C29.1360081,194.297902 30.0967798,196.562126 29.9537587,199.918973 C29.7288859,205.190798 25.1360577,210.65 22.7343696,210.65 L10.5688913,210.65 C6.28196294,210.65 2.66312245,207.362815 2.10012453,203.100193 L0.233508773,191.828261 L5.37192095,191.828261 L14.5901237,178.171664 Z M3.38578805,202.908836 C3.86773474,206.555524 6.94415496,209.35 10.5688913,209.35 L22.7343696,209.35 C23.1155767,209.35 24.6195693,208.262174 25.8179013,206.837793 C27.4864711,204.854471 28.5442164,202.459323 28.6549384,199.863603 C28.780325,196.920656 27.9984833,195.078112 26.5889145,194.053174 C25.6569924,193.375546 24.5849805,193.128261 23.576087,193.128261 L17.8597551,193.128151 C15.5303906,193.170908 14.4396862,191.35374 15.5050002,189.212717 L16.6406401,187.175754 C18.2662651,184.359917 17.737215,181.426644 15.0276922,179.84703 L6.06286166,193.128261 L1.76646593,193.128261 L3.38578805,202.908836 Z" id="Stroke-1602"></path>
            </g>
        </g>
    </g>
</svg>