<?xml version="1.0" encoding="UTF-8"?>
<svg width="35px" height="35px" viewBox="0 0 35 35" version="1.1" xmlns="http://www.w3.org/2000/svg" xmlns:xlink="http://www.w3.org/1999/xlink">
    <!-- Generator: Sketch 43.2 (39069) - http://www.bohemiancoding.com/sketch -->
    <title>Group 8</title>
    <desc>Created with Sketch.</desc>
    <defs></defs>
    <g id="Homepage" stroke="none" stroke-width="1" fill="none" fill-rule="evenodd">
        <g id="Web-Home-Desktop-v4" transform="translate(-225.000000, -2583.000000)">
            <g id="SecFeatures" transform="translate(138.000000, 2213.000000)">
                <g id="Group-12" transform="translate(0.000000, 167.000000)">
                    <g id="Group-8" transform="translate(87.000000, 203.000000)">
                        <polygon id="Stroke-1521" fill="#000000" fill-rule="nonzero" points="12.5112903 0.384625 12.5112903 6.05129167 13.8112903 6.05129167 13.8112903 0.384625"></polygon>
                        <polygon id="Stroke-1522" fill="#000000" fill-rule="nonzero" points="5.78162917 12.5112903 0.1149625 12.5112903 0.1149625 13.8112903 5.78162917 13.8112903"></polygon>
                        <polygon id="Stroke-1523" fill="#000000" fill-rule="nonzero" points="23.2522639 3.24425559 19.2452223 7.25129726 20.1644611 8.17053607 24.1715027 4.16349441"></polygon>
                        <polygon id="Stroke-1524" fill="#000000" fill-rule="nonzero" points="6.98149309 19.5148139 2.97445143 23.5218556 3.89369024 24.4410944 7.90073191 20.4340527"></polygon>
                        <polygon id="Stroke-1525" fill="#000000" fill-rule="nonzero" points="7.90094441 7.25143893 3.89390274 3.24439726 2.97466393 4.16363607 6.98170559 8.17067774"></polygon>
                        <path d="M14.3737125,12.557368 L12.287493,14.6435875 L30.4011708,32.7572654 L32.4873904,30.6710458 L14.3737125,12.557368 Z M30.4011708,34.595743 L10.4490154,14.6435875 L14.3737125,10.7188904 L34.325868,30.6710458 L30.4011708,34.595743 Z" id="Stroke-1526" fill="#000000" fill-rule="nonzero"></path>
                        <path d="M19.2399625,16.322125 L16.0524625,19.509625" id="Stroke-1527" stroke="#000000" stroke-width="1.3"></path>
                    </g>
                </g>
            </g>
        </g>
    </g>
</svg>