<?xml version="1.0" encoding="UTF-8"?>
<svg width="33px" height="29px" viewBox="0 0 33 29" version="1.1" xmlns="http://www.w3.org/2000/svg" xmlns:xlink="http://www.w3.org/1999/xlink">
    <!-- Generator: Sketch 43.2 (39069) - http://www.bohemiancoding.com/sketch -->
    <title>Stroke 1464</title>
    <desc>Created with Sketch.</desc>
    <defs></defs>
    <g id="Homepage" stroke="none" stroke-width="1" fill="none" fill-rule="evenodd">
        <g id="Web-Home-Desktop-v4" transform="translate(-226.000000, -2382.000000)" fill-rule="nonzero" fill="#000000">
            <g id="SecFeatures" transform="translate(138.000000, 2213.000000)">
                <g id="Group-12" transform="translate(0.000000, 167.000000)">
                    <path d="M104.05,29.4175036 L87.9845311,15.5833499 L104.05,2.64172213 L104.05,11.362263 C112.918078,11.6973998 120.05,18.8593409 120.05,27.6232 L120.05,30.3422798 L118.842955,28.3349639 C115.963552,23.5465173 110.58385,20.8270766 104.05,20.6583531 L104.05,29.4175036 Z M90.0154689,15.6166501 L102.75,26.5824964 L102.75,19.35 L103.4,19.35 C109.760063,19.35 115.212659,21.6156067 118.635287,25.7896005 C117.704222,18.3986062 111.220271,12.65 103.4,12.65 L102.75,12.65 L102.75,5.35827787 L90.0154689,15.6166501 Z" id="Stroke-1464"></path>
                </g>
            </g>
        </g>
    </g>
</svg>