<?xml version="1.0" encoding="UTF-8"?>
<svg width="33px" height="24px" viewBox="0 0 33 24" version="1.1" xmlns="http://www.w3.org/2000/svg" xmlns:xlink="http://www.w3.org/1999/xlink">
    <!-- Generator: Sketch 43.2 (39069) - http://www.bohemiancoding.com/sketch -->
    <title>Group 4</title>
    <desc>Created with Sketch.</desc>
    <defs></defs>
    <g id="ForTeams" stroke="none" stroke-width="1" fill="none" fill-rule="evenodd">
        <g id="Web-Team-Desktop-v4" transform="translate(-525.000000, -787.000000)" fill-rule="nonzero" fill="#000000">
            <g id="Features" transform="translate(144.000000, 608.000000)">
                <g id="Group-4" transform="translate(381.000000, 179.000000)">
                    <path d="M12.431082,16.493888 C12.431082,19.4414808 10.0421126,21.8304502 7.09451982,21.8304502 C4.14692708,21.8304502 1.75795767,19.4414808 1.75795767,16.493888 C1.75795767,13.5462953 4.14692708,11.1573259 7.09451982,11.1573259 C10.0421126,11.1573259 12.431082,13.5462953 12.431082,16.493888 L13.731082,16.493888 C13.731082,12.8283251 10.7600827,9.85732587 7.09451982,9.85732587 C3.42895691,9.85732587 0.457957671,12.8283251 0.457957671,16.493888 C0.457957671,20.1594509 3.42895691,23.1304502 7.09451982,23.1304502 C10.7600827,23.1304502 13.731082,20.1594509 13.731082,16.493888 L12.431082,16.493888 Z" id="Stroke-1626"></path>
                    <path d="M2.48068536,13.8050026 L8.09009409,3.22142589 C8.53748611,2.37452101 9.41596085,1.84489586 10.3726947,1.84489586 C11.8416386,1.84489586 13.0138314,3.06941132 12.9500643,4.53711656 L12.4318939,16.465679 L13.7306691,16.5220971 L14.2488393,4.5935394 C14.3447284,2.38649217 12.5818221,0.544895857 10.3726947,0.544895857 C8.93393678,0.544895857 7.61310087,1.3412169 6.9410401,2.61341754 L1.33204566,13.1962113 L2.48068536,13.8050026 Z" id="Stroke-1627"></path>
                    <path d="M19.0828177,16.493888 C19.0828177,20.1594509 22.0538169,23.1304502 25.7193798,23.1304502 C29.3849428,23.1304502 32.355942,20.1594509 32.355942,16.493888 C32.355942,12.8283251 29.3849428,9.85732587 25.7193798,9.85732587 C22.0538169,9.85732587 19.0828177,12.8283251 19.0828177,16.493888 L20.3828177,16.493888 C20.3828177,13.5462953 22.7717871,11.1573259 25.7193798,11.1573259 C28.6669726,11.1573259 31.055942,13.5462953 31.055942,16.493888 C31.055942,19.4414808 28.6669726,21.8304502 25.7193798,21.8304502 C22.7717871,21.8304502 20.3828177,19.4414808 20.3828177,16.493888 L19.0828177,16.493888 Z" id="Stroke-1628"></path>
                    <path d="M31.4756317,13.197401 L25.8795264,2.585887 C25.1987712,1.32625809 23.8882993,0.544895857 22.4629561,0.544895857 C20.2323355,0.544895857 18.4689807,2.38669969 18.564861,4.59354414 L19.0836977,16.5221332 L20.3824698,16.4656428 L19.8636344,4.53708515 C19.7998795,3.06966065 20.9724772,1.84489586 22.4410054,1.84489586 C23.4107756,1.84489586 24.2821657,2.36445774 24.7327519,3.19814853 L30.325734,13.8038129 L31.4756317,13.197401 Z" id="Stroke-1629"></path>
                    <path d="M13.6932419,16.7124291 C13.7520288,16.5477599 13.9199727,16.2558247 14.2208739,15.9584425 C14.73288,15.4524242 15.4387482,15.1483673 16.4069498,15.1483673 C17.3751515,15.1483673 18.0810196,15.4524242 18.5930258,15.9584425 C18.893927,16.2558247 19.0618709,16.5477599 19.1206578,16.7124291 L20.3449776,16.2753469 C20.2256643,15.9411359 19.9631162,15.4847509 19.506842,15.0338128 C18.7568891,14.2926307 17.7255317,13.8483673 16.4069498,13.8483673 C15.0883679,13.8483673 14.0570105,14.2926307 13.3070577,15.0338128 C12.8507835,15.4847509 12.5882354,15.9411359 12.468922,16.2753469 L13.6932419,16.7124291 Z" id="Stroke-1630"></path>
                    <path d="M14.0683508,7.51071371 C14.1390311,7.36568057 14.3150069,7.11116096 14.5987793,6.85307637 C15.0715424,6.42310901 15.6633318,6.16845756 16.4068168,6.16845756 C17.1503018,6.16845756 17.7420912,6.42310901 18.2148543,6.85307637 C18.4986267,7.11116096 18.6746025,7.36568057 18.7452828,7.51071371 L19.9138961,6.94120252 C19.7765434,6.65936053 19.5098046,6.27356742 19.0895324,5.89133931 C18.3888877,5.25411882 17.4926422,4.86845756 16.4068168,4.86845756 C15.3209914,4.86845756 14.4247459,5.25411882 13.7241012,5.89133931 C13.3038289,6.27356742 13.0370902,6.65936053 12.8997375,6.94120252 L14.0683508,7.51071371 Z" id="Stroke-1631"></path>
                </g>
            </g>
        </g>
    </g>
</svg>