<?xml version="1.0" encoding="UTF-8"?>
<svg width="39px" height="39px" viewBox="0 0 39 39" version="1.1" xmlns="http://www.w3.org/2000/svg" xmlns:xlink="http://www.w3.org/1999/xlink">
    <!-- Generator: Sketch 43.2 (39069) - http://www.bohemiancoding.com/sketch -->
    <title>Group 24</title>
    <desc>Created with Sketch.</desc>
    <defs></defs>
    <g id="Manifesto" stroke="none" stroke-width="1" fill="none" fill-rule="evenodd">
        <g id="Web-Manifesto-Desktop-v4" transform="translate(-493.000000, -1224.000000)" fill="#000000">
            <g id="Content" transform="translate(244.000000, 412.000000)">
                <g id="Group-24" transform="translate(249.000000, 812.000000)">
                    <path d="M32.1118306,19.322749 C32.1118306,12.2088565 26.3451108,6.44213673 19.2312184,6.44213673 C12.1173259,6.44213673 6.35060612,12.2088565 6.35060612,19.322749 C6.35060612,26.4366414 12.1173259,32.2033612 19.2312184,32.2033612 C26.3451108,32.2033612 32.1118306,26.4366414 32.1118306,19.322749 Z M33.4118306,19.322749 C33.4118306,27.1546116 27.063081,33.5033612 19.2312184,33.5033612 C11.3993557,33.5033612 5.05060612,27.1546116 5.05060612,19.322749 C5.05060612,11.4908863 11.3993557,5.14213673 19.2312184,5.14213673 C27.063081,5.14213673 33.4118306,11.4908863 33.4118306,19.322749 Z" id="Stroke-1544" fill-rule="nonzero"></path>
                    <polygon id="Stroke-1545" fill-rule="nonzero" points="19.65 5.80463265 19.65 0.233204082 18.35 0.233204082 18.35 5.80463265"></polygon>
                    <polygon id="Stroke-1546" fill-rule="nonzero" points="19.65 38.4372857 19.65 32.8658571 18.35 32.8658571 18.35 38.4372857"></polygon>
                    <polygon id="Stroke-1547" fill-rule="nonzero" points="32.7618306 19.65 38.3332592 19.65 38.3332592 18.35 32.7618306 18.35"></polygon>
                    <polygon id="Stroke-1548" fill-rule="nonzero" points="0.129177551 19.65 5.70060612 19.65 5.70060612 18.35 0.129177551 18.35"></polygon>
                    <path d="M21.6189735,19.3352449 C21.6189735,20.6540816 20.5500551,21.723 19.2312184,21.723 C17.9123816,21.723 16.8434633,20.6540816 16.8434633,19.3352449 C16.8434633,18.0164082 17.9123816,16.9474898 19.2312184,16.9474898 C20.5500551,16.9474898 21.6189735,18.0164082 21.6189735,19.3352449" id="Fill-1549"></path>
                </g>
            </g>
        </g>
    </g>
</svg>