<?xml version="1.0" encoding="UTF-8"?>
<svg width="38px" height="34px" viewBox="0 0 38 34" version="1.1" xmlns="http://www.w3.org/2000/svg" xmlns:xlink="http://www.w3.org/1999/xlink">
    <!-- Generator: Sketch 43.2 (39069) - http://www.bohemiancoding.com/sketch -->
    <title>Shape</title>
    <desc>Created with Sketch.</desc>
    <defs></defs>
    <g id="Results" stroke="none" stroke-width="1" fill="none" fill-rule="evenodd">
        <g id="Web-Results-Desktop" transform="translate(-495.000000, -1879.000000)" fill-rule="nonzero" fill="#000000">
            <g id="OtherResults" transform="translate(124.000000, 1856.000000)">
                <g id="Group-9" transform="translate(281.000000, 0.000000)">
                    <path d="M124.607143,25.6153846 L119.857143,25.6153846 L119.857143,23.6538462 C119.857143,23.2615385 119.585714,23 119.178571,23 C118.771429,23 118.5,23.2615385 118.5,23.6538462 L118.5,25.6153846 L113.071429,25.6153846 L113.071429,23.6538462 C113.071429,23.2615385 112.8,23 112.392857,23 C111.985714,23 111.714286,23.2615385 111.714286,23.6538462 L111.714286,25.6153846 L106.285714,25.6153846 L106.285714,23.6538462 C106.285714,23.2615385 106.014286,23 105.607143,23 C105.2,23 104.928571,23.2615385 104.928571,23.6538462 L104.928571,25.6153846 L99.5,25.6153846 L99.5,23.6538462 C99.5,23.2615385 99.2285714,23 98.8214286,23 C98.4142857,23 98.1428571,23.2615385 98.1428571,23.6538462 L98.1428571,25.6153846 L93.3928571,25.6153846 C91.4928571,25.6153846 90,27.0538462 90,28.8846154 L90,53.7307692 C90,55.5615385 91.4928571,57 93.3928571,57 L124.607143,57 C126.507143,57 128,55.5615385 128,53.7307692 L128,28.8846154 C128,27.0538462 126.507143,25.6153846 124.607143,25.6153846 Z M93.3928571,26.9230769 L98.1428571,26.9230769 L98.1428571,28.8846154 C98.1428571,29.2769231 98.4142857,29.5384615 98.8214286,29.5384615 C99.2285714,29.5384615 99.5,29.2769231 99.5,28.8846154 L99.5,26.9230769 L104.928571,26.9230769 L104.928571,28.8846154 C104.928571,29.2769231 105.2,29.5384615 105.607143,29.5384615 C106.014286,29.5384615 106.285714,29.2769231 106.285714,28.8846154 L106.285714,26.9230769 L111.714286,26.9230769 L111.714286,28.8846154 C111.714286,29.2769231 111.985714,29.5384615 112.392857,29.5384615 C112.8,29.5384615 113.071429,29.2769231 113.071429,28.8846154 L113.071429,26.9230769 L118.5,26.9230769 L118.5,28.8846154 C118.5,29.2769231 118.771429,29.5384615 119.178571,29.5384615 C119.585714,29.5384615 119.857143,29.2769231 119.857143,28.8846154 L119.857143,26.9230769 L124.607143,26.9230769 C125.760714,26.9230769 126.642857,27.7730769 126.642857,28.8846154 L126.642857,33.4615385 L91.3571429,33.4615385 L91.3571429,28.8846154 C91.3571429,27.7730769 92.2392857,26.9230769 93.3928571,26.9230769 Z M124.607143,55.6923077 L93.3928571,55.6923077 C92.2392857,55.6923077 91.3571429,54.8423077 91.3571429,53.7307692 L91.3571429,34.7692308 L126.642857,34.7692308 L126.642857,53.7307692 C126.642857,54.8423077 125.760714,55.6923077 124.607143,55.6923077 Z" id="Shape"></path>
                </g>
            </g>
        </g>
    </g>
</svg>