<?xml version="1.0" encoding="UTF-8"?>
<svg width="39px" height="39px" viewBox="0 0 39 39" version="1.1" xmlns="http://www.w3.org/2000/svg" xmlns:xlink="http://www.w3.org/1999/xlink">
    <!-- Generator: Sketch 43.2 (39069) - http://www.bohemiancoding.com/sketch -->
    <title>Group 15</title>
    <desc>Created with Sketch.</desc>
    <defs></defs>
    <g id="Results" stroke="none" stroke-width="1" fill="none" fill-rule="evenodd">
        <g id="Web-Results-Desktop" transform="translate(-775.000000, -1877.000000)" fill-rule="nonzero" fill="#000000">
            <g id="OtherResults" transform="translate(124.000000, 1856.000000)">
                <g id="Group-10" transform="translate(562.000000, 0.000000)">
                    <g id="Group-15" transform="translate(89.000000, 21.000000)">
                        <path d="M37.2,19.5 C37.2,9.72419734 29.2758027,1.79999995 19.5,1.79999995 C9.72419734,1.79999995 1.79999995,9.72419734 1.79999995,19.5 C1.79999995,29.2752815 9.72448051,37.2 19.5,37.2 C29.2755195,37.2 37.2,29.2752815 37.2,19.5 Z M38.8,19.5 C38.8,30.1589263 30.1591858,38.8 19.5,38.8 C8.84081421,38.8 0.200000048,30.1589263 0.200000048,19.5 C0.200000048,8.84054179 8.84054179,0.200000048 19.5,0.200000048 C30.1594582,0.200000048 38.8,8.84054179 38.8,19.5 Z" id="Stroke-458"></path>
                        <polygon id="Stroke-459" points="19.2 18.2 10 18.2 10 19.8 20.8 19.8 20.8 5 19.2 5"></polygon>
                    </g>
                </g>
            </g>
        </g>
    </g>
</svg>