<?xml version="1.0" encoding="UTF-8"?>
<svg width="25px" height="27px" viewBox="0 0 25 27" version="1.1" xmlns="http://www.w3.org/2000/svg" xmlns:xlink="http://www.w3.org/1999/xlink">
    <!-- Generator: Sketch 43.2 (39069) - http://www.bohemiancoding.com/sketch -->
    <title>Group 20 Copy 2</title>
    <desc>Created with Sketch.</desc>
    <defs></defs>
    <g id="Mission" stroke="none" stroke-width="1" fill="none" fill-rule="evenodd">
        <g id="Web-Mission-Desktop-v4" transform="translate(-657.000000, -1137.000000)" fill-rule="nonzero" fill="#000000">
            <g id="ManifestoCTA" transform="translate(173.000000, 1001.000000)">
                <g id="Group-10" transform="translate(407.000000, 124.000000)">
                    <g id="Group-8" transform="translate(63.641686, 0.000000)">
                        <g id="Group-20-Copy-2" transform="translate(13.004684, 11.575342)">
                            <path d="M20.8184023,9.98426629 C20.8184023,5.39539698 17.0219758,1.6711657 12.3338831,1.6711657 C7.64579034,1.6711657 3.84936388,5.39539698 3.84936388,9.98426629 C3.84936388,14.5731356 7.64579034,18.2973669 12.3338831,18.2973669 C17.0219758,18.2973669 20.8184023,14.5731356 20.8184023,9.98426629 Z M21.8376022,9.98426629 C21.8376022,15.1404507 17.580531,19.3165669 12.3338831,19.3165669 C7.08723518,19.3165669 2.8301639,15.1404507 2.8301639,9.98426629 C2.8301639,4.82808191 7.08723518,0.651965711 12.3338831,0.651965711 C17.580531,0.651965711 21.8376022,4.82808191 21.8376022,9.98426629 Z" id="Stroke-1131"></path>
                            <path d="M4.67030737,18.8533181 C4.42193099,18.6466824 4.18018481,18.4284133 3.94581539,18.1985107 L3.58891705,17.8484144 L0.734503622,20.6490559 L1.44830185,21.376559 L3.94585632,18.9260539 L3.23209902,18.926094 C3.35161811,19.0433352 3.4728997,19.1577895 3.59586,19.2694569 C8.64569778,23.8555085 16.526931,23.7410542 21.4354423,18.926094 C26.46894,13.9885296 26.46894,5.97978246 21.4354423,1.04221797 L20.7217259,1.76980133 C25.3479121,6.30781728 25.3479121,13.6604947 20.7217259,18.1985107 C16.3244417,22.5119872 9.33039286,22.7302564 4.67030737,18.8533181 Z" id="Stroke-1132"></path>
                            <polygon id="Stroke-1133" points="11.6007825 22.1154796 11.6007825 26.5268299 12.6199825 26.5268299 12.6199825 22.1154796"></polygon>
                            <polygon id="Stroke-1134" points="7.27469103 27.1992282 17.3930751 27.1992282 17.3930751 26.1800282 7.27469103 26.1800282"></polygon>
                        </g>
                    </g>
                </g>
            </g>
        </g>
    </g>
</svg>