<?xml version="1.0" encoding="UTF-8"?>
<svg width="42px" height="29px" viewBox="0 0 42 29" version="1.1" xmlns="http://www.w3.org/2000/svg" xmlns:xlink="http://www.w3.org/1999/xlink">
    <!-- Generator: Sketch 43.2 (39069) - http://www.bohemiancoding.com/sketch -->
    <title>Group 3</title>
    <desc>Created with Sketch.</desc>
    <defs></defs>
    <g id="Results" stroke="none" stroke-width="1" fill="none" fill-rule="evenodd">
        <g id="Web-Results-Desktop" transform="translate(-491.000000, -399.000000)" fill-rule="nonzero" fill="#000000">
            <g id="Results1" transform="translate(0.000000, 374.000000)">
                <g id="Group-4" transform="translate(472.000000, 0.000000)">
                    <g id="Group-3" transform="translate(19.000000, 25.000000)">
                        <path d="M39.4168859,11.9078912 L37.8550354,21.7301437 C37.3670684,24.7991693 34.8485948,27.0356524 31.911248,27.0356524 L9.34329769,27.0356524 C6.40595092,27.0356524 3.88747735,24.7991693 3.39951204,21.7301545 L1.83765987,11.9078912 L8.26617285,1.79999995 L30.0142295,1.79999995 L30.0142295,0.200000048 L7.38758219,0.200000048 L0.162340128,11.5606307 L1.81936244,21.9814053 C2.42881613,25.8145105 5.60566603,28.6356523 9.34329769,28.6356523 L31.911248,28.6356523 C35.6488797,28.6356523 38.8257296,25.8145105 39.435185,21.9813945 L41.0922056,11.5606307 L33.8669635,0.200000048 L28.3075101,0.200000048 L28.3075101,1.79999995 L32.9883729,1.79999995 L39.4168859,11.9078912 Z" id="Stroke-5"></path>
                        <path d="M14.1979096,11.1122575 C14.9851759,14.001106 17.5167515,16.0028286 20.409091,16.0028286 C23.3014306,16.0028286 25.8330062,14.001106 26.6202575,11.1123125 L26.9938134,9.74117642 L38.2181821,9.74117642 L38.2181821,8.14117652 L25.7714044,8.14117652 L25.0765389,10.6916788 C24.4762361,12.8944709 22.5686182,14.4028287 20.409091,14.4028287 C18.2495639,14.4028287 16.341946,12.8944709 15.7416282,10.6916238 L15.20744,8.73088709 L15.0467777,8.14117652 L2.6,8.14117652 L2.6,9.74117642 L13.8243687,9.74117642 L14.1979096,11.1122575 Z" id="Stroke-7"></path>
                    </g>
                </g>
            </g>
        </g>
    </g>
</svg>