<?xml version="1.0" encoding="UTF-8"?>
<svg width="35px" height="35px" viewBox="0 0 35 35" version="1.1" xmlns="http://www.w3.org/2000/svg" xmlns:xlink="http://www.w3.org/1999/xlink">
    <!-- Generator: Sketch 43.2 (39069) - http://www.bohemiancoding.com/sketch -->
    <title>Group</title>
    <desc>Created with Sketch.</desc>
    <defs></defs>
    <g id="Homepage" stroke="none" stroke-width="1" fill="none" fill-rule="evenodd">
        <g id="Web-Home-Desktop-v4" transform="translate(-768.000000, -2379.000000)" fill="#000000">
            <g id="SecFeatures" transform="translate(138.000000, 2213.000000)">
                <g id="Group-12" transform="translate(0.000000, 166.000000)">
                    <g id="Group" transform="translate(630.000000, 0.000000)">
                        <path d="M22.9023156,3.52671694 C22.7083711,2.4268129 21.6601927,1.69259515 20.5610415,1.88650051 L8.78705737,3.96269296 C7.68751553,4.15657352 6.95357379,5.20515561 7.1475461,6.30468631 L11.5337355,31.1824618 C11.7276084,32.2819599 12.7762492,33.016107 13.8757116,32.8226782 L25.6496429,30.7464951 C26.7490507,30.5525445 27.4831146,29.5041869 27.2892092,28.4045042 L22.9023156,3.52671694 Z M25.8754458,32.0267345 L14.1012144,34.1029705 C12.2947353,34.4207851 10.5720269,33.2147273 10.2534837,31.4081945 L5.86730361,6.53047198 C5.54861573,4.72399192 6.75458786,3.00102032 8.56130739,2.68244417 L20.3352387,0.606261054 C22.1415614,0.287600928 23.8639605,1.49409017 24.1825643,3.30096666 L28.5694579,28.1787539 C28.8880364,29.9854865 27.6818887,31.7080532 25.8754458,32.0267345 Z" id="Stroke-682" fill-rule="nonzero"></path>
                        <path d="M20.7236787,29.5725936 C20.851466,30.2964872 20.3684021,30.9866787 19.6445085,31.1137638 C18.9206149,31.2415511 18.2304234,30.7584872 18.1026362,30.0345936 C17.9755511,29.3107 18.4586149,28.6205085 19.1825085,28.4934234 C19.9057,28.3656362 20.5958915,28.8487 20.7236787,29.5725936" id="Fill-683"></path>
                        <polygon id="Stroke-684" fill-rule="nonzero" points="10.5462316 29.324809 27.581955 26.3211069 27.3562237 25.0408548 10.3205003 28.0445569"></polygon>
                        <polygon id="Stroke-685" fill-rule="nonzero" points="27.6812072 7.28668184 30.1196966 21.1157882 31.399946 20.8900416 28.9614566 7.06093518"></polygon>
                        <polygon id="Stroke-686" fill-rule="nonzero" points="31.07795 8.33901455 32.7714819 18.0192486 34.052033 17.7952195 32.3585011 8.11498545"></polygon>
                        <polygon id="Stroke-687" fill-rule="nonzero" points="3.1257668 12.5526393 5.56425617 26.3817457 6.84450554 26.155999 4.40601617 12.3268926"></polygon>
                        <polygon id="Stroke-688" fill-rule="nonzero" points="0.473609587 15.711355 2.1671415 25.391589 3.44769254 25.1675599 1.75416063 15.4873259"></polygon>
                    </g>
                </g>
            </g>
        </g>
    </g>
</svg>