<?xml version="1.0" encoding="UTF-8"?>
<svg width="31px" height="31px" viewBox="0 0 31 31" version="1.1" xmlns="http://www.w3.org/2000/svg" xmlns:xlink="http://www.w3.org/1999/xlink">
    <!-- Generator: Sketch 43.2 (39069) - http://www.bohemiancoding.com/sketch -->
    <title>Shape</title>
    <desc>Created with Sketch.</desc>
    <defs></defs>
    <g id="Manifesto" stroke="none" stroke-width="1" fill="none" fill-rule="evenodd">
        <g id="Web-Manifesto-Desktop-v4" transform="translate(-497.000000, -955.000000)" fill-rule="nonzero" fill="#000000">
            <g id="Content" transform="translate(244.000000, 412.000000)">
                <path d="M274.302618,573.993165 L265.90144,573.993165 L265.255593,573.347318 L265.255593,571.695241 L265.577225,571.135938 C266.184321,570.784597 266.545995,570.160709 266.545995,569.472236 C266.545995,568.887099 266.285073,568.338129 265.830397,567.968704 C265.36797,567.594113 264.781541,567.455902 264.184778,567.581196 C263.485972,567.727157 262.90471,568.287753 262.735498,568.977517 C262.522368,569.844244 262.878876,570.691595 263.643559,571.13723 L263.963899,571.695241 L263.963899,573.347318 L263.318052,573.993165 L255.578221,573.993165 C254.157358,573.993165 253,572.835807 253,571.414944 L253,563.013766 L253.559844,562.367919 L254.637868,562.367919 L255.19588,562.688259 C255.850769,563.813325 257.560972,563.933452 258.365697,562.941431 C258.74158,562.479005 258.878499,561.893867 258.753205,561.295813 C258.607244,560.598298 258.045357,560.015744 257.356884,559.847824 C256.490157,559.629528 255.641514,559.98991 255.197172,560.755885 L254.637868,561.076225 L253.645847,561.076225 L253,560.430378 L253,552.0292 C253,550.608337 254.157358,549.450979 255.578221,549.450979 L262.672205,549.450979 L262.672205,548.815465 C261.850687,548.209661 261.353385,547.248641 261.353385,546.225619 C261.353385,545.247807 261.788686,544.334579 262.549494,543.718441 C263.30901,543.102303 264.304906,542.867214 265.27626,543.072594 C266.443951,543.318016 267.421764,544.258369 267.70852,545.413143 C268.024985,546.689337 267.561267,547.99524 266.547287,548.775423 L266.547287,549.450979 L274.302618,549.450979 C275.723481,549.450979 276.880839,550.608337 276.880839,552.0292 L276.880839,559.784531 L277.543478,559.784531 C278.318494,558.751176 279.62698,558.275832 280.913508,558.592297 C282.073449,558.87647 283.02026,559.856866 283.266974,561.031016 C283.471062,562.004953 283.234682,562.996974 282.617252,563.75649 C281.999822,564.514714 281.086595,564.950015 280.111366,564.950015 C279.102553,564.950015 278.149282,564.463047 277.543478,563.659613 L276.880839,563.659613 L276.880839,571.414944 C276.880839,572.835807 275.723481,573.993165 274.302618,573.993165 Z M266.547287,572.701471 L274.302618,572.701471 C275.011758,572.701471 275.589145,572.124084 275.589145,571.414944 L275.589145,563.013766 L276.234992,562.367919 L277.88836,562.367919 L278.447664,562.689551 C279.097386,563.812033 280.810172,563.933452 281.614897,562.941431 C281.99078,562.479005 282.1277,561.893867 282.003697,561.295813 C281.856444,560.598298 281.294557,560.015744 280.606084,559.847824 C279.740649,559.630819 278.893298,559.98991 278.446372,560.755885 L277.88836,561.076225 L276.234992,561.076225 L275.589145,560.430378 L275.589145,552.0292 C275.589145,551.32006 275.011758,550.742673 274.302618,550.742673 L265.90144,550.742673 L265.255593,550.096826 L265.255593,548.434416 L265.569474,547.880279 C266.32124,547.429478 266.668706,546.583418 266.455576,545.724442 C266.286365,545.039844 265.705102,544.483124 265.011463,544.335871 C264.409533,544.209285 263.825687,544.346204 263.363261,544.722087 C262.907293,545.091512 262.645079,545.63919 262.645079,546.226911 C262.645079,546.915383 263.024837,547.557355 263.635808,547.903529 L263.963899,548.465416 L263.963899,550.096826 L263.318052,550.742673 L255.578221,550.742673 C254.869081,550.742673 254.291694,551.32006 254.291694,552.0292 L254.291694,559.784531 C255.06671,558.751176 256.37778,558.275832 257.663015,558.592297 C258.824248,558.87647 259.769768,559.856866 260.016482,561.031016 C260.22057,562.003661 259.98419,562.996974 259.368051,563.755198 C258.751913,564.514714 257.838686,564.950015 256.862165,564.950015 C255.853352,564.950015 254.900082,564.464338 254.294277,563.659613 L254.291694,571.414944 C254.291694,572.124084 254.869081,572.701471 255.578221,572.701471 L262.672205,572.701471 L262.672205,572.040124 C261.640141,571.265107 261.164798,569.957913 261.481263,568.670094 C261.765436,567.508861 262.745831,566.562049 263.919981,566.317919 C264.892627,566.113832 265.887231,566.351503 266.644164,566.967641 C267.402388,567.583779 267.837689,568.497007 267.837689,569.472236 C267.837689,570.481049 267.352012,571.434319 266.547287,572.040124 L266.547287,572.701471 Z" id="Shape"></path>
            </g>
        </g>
    </g>
</svg>