<?xml version="1.0" encoding="UTF-8"?>
<svg width="30px" height="32px" viewBox="0 0 30 32" version="1.1" xmlns="http://www.w3.org/2000/svg" xmlns:xlink="http://www.w3.org/1999/xlink">
    <!-- Generator: Sketch 43.2 (39069) - http://www.bohemiancoding.com/sketch -->
    <title>noun_684240_cc</title>
    <desc>Created with Sketch.</desc>
    <defs></defs>
    <g id="Homepage" stroke="none" stroke-width="1" fill="none" fill-rule="evenodd">
        <g id="Web-Home-Desktop-v4" transform="translate(-499.000000, -2584.000000)" fill-rule="nonzero" fill="#000000">
            <g id="SecFeatures" transform="translate(138.000000, 2213.000000)">
                <g id="noun_684240_cc" transform="translate(361.000000, 371.000000)">
                    <path d="M26.9295045,0.101265823 L3.23963964,0.101265823 C1.5631862,0.103497232 0.20470829,1.46233857 0.202477477,3.13924051 L0.202477477,26.835443 C0.203751361,28.2787377 1.21876518,29.5224623 2.63220721,29.8126582 L2.63220721,30.4324051 C2.63220721,31.215391 3.26677299,31.8501266 4.04954955,31.8501266 L6.35779279,31.8501266 C7.14056935,31.8501266 7.77513514,31.215391 7.77513514,30.4324051 L7.77513514,29.8734177 L22.798964,29.8734177 L22.798964,30.4324051 C22.798964,31.215391 23.4335297,31.8501266 24.2163063,31.8501266 L26.5245495,31.8501266 C27.3073261,31.8501266 27.9418919,31.215391 27.9418919,30.4324051 L27.9418919,29.6992405 C29.1530656,29.2696317 29.9635621,28.1249044 29.9666667,26.8394937 L29.9666667,3.13924051 C29.9644359,1.46233857 28.6059579,0.103497232 26.9295045,0.101265823 L26.9295045,0.101265823 Z M6.56027027,30.4324051 C6.56027027,30.5442602 6.46961802,30.6349367 6.35779279,30.6349367 L4.04954955,30.6349367 C3.93772433,30.6349367 3.84707207,30.5442602 3.84707207,30.4324051 L3.84707207,29.8734177 L6.56027027,29.8734177 L6.56027027,30.4324051 Z M26.5245495,30.6349367 L24.2163063,30.6349367 C24.1044811,30.6349367 24.0138288,30.5442602 24.0138288,30.4324051 L24.0138288,29.8734177 L26.727027,29.8734177 L26.727027,30.4324051 C26.727027,30.5442602 26.6363748,30.6349367 26.5245495,30.6349367 Z M28.7518018,26.835443 C28.7518018,27.8421393 27.9359315,28.6582278 26.9295045,28.6582278 L3.23963964,28.6582278 C2.23321263,28.6582278 1.41734234,27.8421393 1.41734234,26.835443 L1.41734234,3.13924051 C1.41734234,2.13254425 2.23321263,1.3164557 3.23963964,1.3164557 L26.9295045,1.3164557 C27.9359315,1.3164557 28.7518018,2.13254425 28.7518018,3.13924051 L28.7518018,26.835443 Z" id="Shape"></path>
                    <path d="M23.3416036,3.69012658 L6.82754054,3.69012658 C5.1510871,3.69235799 3.79260919,5.05119933 3.79037838,6.72810127 L3.79037838,7.74075949 L2.98046847,7.74075949 C2.6449928,7.74075949 2.37303604,8.01278901 2.37303604,8.34835443 C2.37303604,8.68391985 2.6449928,8.95594937 2.98046847,8.95594937 L3.79037838,8.95594937 L3.79037838,21.0227848 L2.98046847,21.0227848 C2.6449928,21.0227848 2.37303604,21.2948143 2.37303604,21.6303797 C2.37303604,21.9659452 2.6449928,22.2379747 2.98046847,22.2379747 L3.79037838,22.2379747 L3.79037838,23.2506329 C3.79260919,24.9275348 5.1510871,26.2863762 6.82754054,26.2886076 L23.3416036,26.2886076 C25.018057,26.2863762 26.376535,24.9275348 26.3787658,23.2506329 L26.3787658,6.72810127 C26.376535,5.05119933 25.018057,3.69235799 23.3416036,3.69012658 L23.3416036,3.69012658 Z M25.1639009,23.2506329 C25.1639009,24.2573292 24.3480306,25.0734177 23.3416036,25.0734177 L6.82754054,25.0734177 C5.82111353,25.0734177 5.00524324,24.2573292 5.00524324,23.2506329 L5.00524324,22.2379747 L5.81515315,22.2379747 C6.15062882,22.2379747 6.42258559,21.9659452 6.42258559,21.6303797 C6.42258559,21.2948143 6.15062882,21.0227848 5.81515315,21.0227848 L5.00524324,21.0227848 L5.00524324,8.95594937 L5.81515315,8.95594937 C6.15062882,8.95594937 6.42258559,8.68391985 6.42258559,8.34835443 C6.42258559,8.01278901 6.15062882,7.74075949 5.81515315,7.74075949 L5.00524324,7.74075949 L5.00524324,6.72810127 C5.00524324,5.72140501 5.82111353,4.90531646 6.82754054,4.90531646 L23.3416036,4.90531646 C24.3480306,4.90531646 25.1639009,5.72140501 25.1639009,6.72810127 L25.1639009,23.2506329 Z" id="Shape"></path>
                    <path d="M20.9483198,10.7139241 L20.883527,10.6653165 L20.8106351,10.6329114 C18.5255922,9.28645906 15.6063778,9.75447965 13.8564991,11.7478274 C12.1066205,13.7411751 12.0200301,16.6971715 13.650224,18.7895851 C15.2804179,20.8819987 18.1672281,21.5201869 20.5271667,20.3098734 L20.5717117,20.3098734 L20.6000586,20.3098734 C22.345766,19.387938 23.4657659,17.6030596 23.5368203,15.6297277 C23.6078747,13.6563958 22.6191477,11.7955471 20.9442703,10.7503797 L20.9483198,10.7139241 Z M18.0204955,11.078481 C18.6025309,11.0783862 19.1784828,11.1969152 19.7132072,11.4268354 L17.8828108,14.4486076 C17.7134689,14.4731867 17.5539409,14.5431739 17.4211622,14.6511392 L13.9587973,13.9706329 C14.5633797,12.2437548 16.1912828,11.086222 18.0204955,11.0825316 L18.0204955,11.078481 Z M13.7117748,15.3924051 L13.7117748,15.161519 L17.1700901,15.8420253 C17.3033601,16.092106 17.5406892,16.2701504 17.818018,16.3281013 L19.4378378,19.443038 C18.1233826,19.9049436 16.6666683,19.7013078 15.529174,18.8966412 C14.3916797,18.0919745 13.7143558,16.7859859 13.7117748,15.3924051 L13.7117748,15.3924051 Z M20.5312162,18.8921519 L18.9113964,15.7691139 C18.9997276,15.5480806 18.9997276,15.3015396 18.9113964,15.0805063 L20.7417928,12.0627848 C21.7798335,12.9108983 22.3632176,14.1946172 22.3195435,15.5345773 C22.2758695,16.8745374 21.6101312,18.1175212 20.5190676,18.8962025 L20.5312162,18.8921519 Z" id="Shape"></path>
                </g>
            </g>
        </g>
    </g>
</svg>