<?xml version="1.0" encoding="UTF-8"?>
<svg width="40px" height="34px" viewBox="0 0 40 34" version="1.1" xmlns="http://www.w3.org/2000/svg" xmlns:xlink="http://www.w3.org/1999/xlink">
    <!-- Generator: Sketch 43.2 (39069) - http://www.bohemiancoding.com/sketch -->
    <title>Group 13</title>
    <desc>Created with Sketch.</desc>
    <defs></defs>
    <g id="Results" stroke="none" stroke-width="1" fill="none" fill-rule="evenodd">
        <g id="Web-Results-Desktop" transform="translate(-493.000000, -1383.000000)" fill-rule="nonzero" fill="#000000">
            <g id="Results3" transform="translate(0.000000, 1361.000000)">
                <g id="Group-2" transform="translate(472.000000, 0.000000)">
                    <g id="Group-14">
                        <g id="Group-13" transform="translate(21.000000, 22.000000)">
                            <path d="M2.39999995,26.8 C2.39999995,29.8925722 4.90742777,32.4 8,32.4 L32,32.4 C35.0925722,32.4 37.6,29.8925722 37.6,26.8 L37.6,8.39999995 L2.39999995,8.39999995 L2.39999995,26.8 Z M32,34 L8,34 C4.02377223,34 0.800000048,30.7762278 0.800000048,26.8 L0.800000048,6.80000005 L39.2,6.80000005 L39.2,26.8 C39.2,30.7762278 35.9762278,34 32,34 Z" id="Stroke-448"></path>
                            <path d="M13.5761323,7.793955 L14.5697323,3.817955 C14.8372888,2.74952931 15.797366,1.99999995 16.8984,1.99999995 L23.1016,1.99999995 C24.2026511,1.99999995 25.1625011,2.74948862 25.4294604,3.81792595 L26.4239044,7.79410197 L27.9760956,7.40589803 L26.9816956,3.42989803 C26.5367841,1.64925236 24.9369004,0.400000048 23.1016,0.400000048 L16.8984,0.400000048 C15.063316,0.400000048 13.4634826,1.64898517 13.017563,3.42966395 L12.0238677,7.406045 L13.5761323,7.793955 Z" id="Stroke-449"></path>
                            <polygon id="Stroke-450" points="10.4 7.6 10.4 33.2 12 33.2 12 7.6"></polygon>
                            <polygon id="Stroke-451" points="28 7.6 28 33.2 29.6 33.2 29.6 7.6"></polygon>
                        </g>
                    </g>
                </g>
            </g>
        </g>
    </g>
</svg>